<svg id="Camada_9" data-name="Camada 9" xmlns="http://www.w3.org/2000/svg" viewBox="0 0 1920 1080"><defs><style>.cls-1{fill:lime;}</style></defs><title>Prancheta 1</title><path class="cls-1" d="M958.6,420.11,839.28,512.46A55.49,55.49,0,0,0,803.11,499c-28.07,0-51.4,21-56.27,48.85L682.6,475.7l-75.18-84.4a4.37,4.37,0,0,0-7.62,2.58l-5.13,42.76c0,.18-.09.42-.14.65l-18.68,71.52a4.82,4.82,0,0,1-.84,1.66L405.88,731A4.4,4.4,0,0,1,398,728.1V629.47a6.46,6.46,0,0,1,.18-1.34L454.85,437.7a5,5,0,0,1,.71-1.38l56.14-78.09a4.45,4.45,0,0,1,1.15-1.1L762.69,187.75a4.29,4.29,0,0,1,5.71.79L875.54,314.69l83.77,98.63A4.73,4.73,0,0,1,958.6,420.11Z"/><path class="cls-1" d="M1521.8,628.12l-56.66-190.4a4.67,4.67,0,0,0-.68-1.4l-56.16-78.09a4.38,4.38,0,0,0-1.13-1.1L1157.32,187.75a4.31,4.31,0,0,0-5.73.81L960.7,413.34a4.74,4.74,0,0,0,.68,6.77l189.56,146.68a4.3,4.3,0,0,0,5.88-.56l155.75-174.94a4.39,4.39,0,0,1,7.64,2.57l5.13,42.77a3.44,3.44,0,0,0,.12.64l18.7,71.53a4.74,4.74,0,0,0,.82,1.67L1514.12,731a4.4,4.4,0,0,0,7.88-2.89V629.49A4.94,4.94,0,0,0,1521.8,628.12Z"/><path class="cls-1" d="M1237,600c-.27.6-271.14,291.31-271.14,291.31a4.26,4.26,0,0,1-6.19-.09L823.88,749.09V625.43a6.48,6.48,0,0,0-1.15-3.74c21.91-8.31,37.58-30.29,37.58-56a60.58,60.58,0,0,0-21-46.22A55.49,55.49,0,0,0,803.11,506c-28.07,0-51.4,21-56.27,48.85a58,58,0,0,0-1,10.85c0,25.31,15.1,46.92,36.44,55.6a11.37,11.37,0,0,0,1.15.41,6.48,6.48,0,0,0-1.15,3.74v80.16l-1-1L681.36,600c-15.81-40.68-13.51-80.62,1.24-117.29,29.57-73.83,109.44-134.37,192.94-161,28.69-9.19,57.78-14.31,85.45-14.64,29.45-.37,59.73,4.57,89.17,13.81,84.92,26.6,162.45,89.07,190.07,164.29C1253.83,522.42,1253,559.27,1237,600Z"/></svg>