<svg xmlns="http://www.w3.org/2000/svg" viewBox="0 0 500 500"><defs><style>.cls-1,.cls-3{fill:none;}.cls-1,.cls-2,.cls-3{stroke:lime;stroke-miterlimit:10;}.cls-1{stroke-width:3px;}.cls-2{fill:lime;}.cls-3{stroke-width:2px;}</style></defs><title>Prancheta 3</title><g id="Camada_9" data-name="Camada 9"><polyline class="cls-1" points="15.56 333.43 227.23 333.25 483.02 333.25"/></g><g id="Camada_5" data-name="Camada 5"><path class="cls-2" d="M249.19,332.31,249.31,9.7a.24.24,0,0,1,.39-.18L379.54,117.37a.23.23,0,0,1,0,.3L249.19,332.31,138.25,119.13"/></g><g id="Camada_11" data-name="Camada 11"><path class="cls-2" d="M28.19,468.89H16.3V375.54H28.19Zm.69-49.82,37.23-43.53H79.83L42.89,418.31l39.63,50.58H67.67Z"/><path class="cls-2" d="M158.14,401.71a23.86,23.86,0,0,1-3,12.2,25.87,25.87,0,0,1-8.35,8.62A37.52,37.52,0,0,1,135,427.47l28,41.42H148.8L123,428.83H110.19v40.06h-12V375.54h24.32q17.52,0,26.55,6.61T158.14,401.71Zm-12.78,0q0-9-5.22-12.91T124,384.9H110.24v34.71H124c6.78,0,12-1.36,15.79-4.17S145.36,408.28,145.36,401.71Z"/><path class="cls-2" d="M235,375.54V385H214v74.49h21v9.43H180.87v-9.43h21V385h-21v-9.43Z"/><path class="cls-2" d="M308.7,445.09H271.26l-7.55,23.8H252l30.76-93.35H298l30.76,93.35H316.25Zm-34.33-9.69h31.28l-15.51-49.89Z"/><path class="cls-2" d="M405.53,401.71a23.57,23.57,0,0,1-3.07,12.2,25.75,25.75,0,0,1-8.34,8.62,37.64,37.64,0,0,1-11.74,4.94l28,41.42H396.12l-25.84-40.06H357.56v40.06H345.61V375.54h24.3q17.52,0,26.55,6.61T405.53,401.71Zm-12.78,0c0-6-1.76-10.3-5.22-12.91s-8.88-3.9-16.22-3.9H357.56v34.71h13.73c6.77,0,12-1.36,15.8-4.17s5.55-7.16,5.55-13.73Z"/><path class="cls-2" d="M482.28,375.54V385h-21v74.49h21v9.43H428.16v-9.43h21V385h-21v-9.43Z"/></g><g id="Camada_10" data-name="Camada 10"><path class="cls-3" d="M153,99.19a20.85,20.85,0,1,1-20.86-20.85A20.86,20.86,0,0,1,153,99.19Z"/></g></svg>